HIERARCHY
ROOT Hips
{
  OFFSET 49.0911 95.5618 6.87032
  CHANNELS 6 Xposition Yposition Zposition Zrotation Xrotation Yrotation
  JOINT spine
  {
    OFFSET 0 7.96568 0.458067
    CHANNELS 3 Zrotation Xrotation Yrotation
    JOINT spine1
    {
      OFFSET 0 10.2431 0
      CHANNELS 3 Zrotation Xrotation Yrotation
      JOINT spine2
      {
        OFFSET 0 9.81475 0
        CHANNELS 3 Zrotation Xrotation Yrotation
        JOINT Neck
        {
          OFFSET 0 25.1986 1.20138
          CHANNELS 3 Zrotation Xrotation Yrotation
          JOINT Head
          {
            OFFSET 0 7.61315 0
            CHANNELS 3 Zrotation Xrotation Yrotation
            End Site
            {
              OFFSET 0 18.4281 -6.07733
            }
          }
        }
        JOINT RightShoulder
        {
          OFFSET -4.1327 10.5992 -0.575451
          CHANNELS 3 Zrotation Xrotation Yrotation
          JOINT RightArm
          {
            OFFSET 0 13.9018 0
            CHANNELS 3 Zrotation Xrotation Yrotation
            JOINT RightArmRoll
            {
              OFFSET 0 7.01788 0
              CHANNELS 3 Zrotation Xrotation Yrotation
              JOINT RightForeArm
              {
                OFFSET 0 20.4406 0
                CHANNELS 3 Zrotation Xrotation Yrotation
                JOINT RightForeArmRoll
                {
                  OFFSET 0 7.87515 0
                  CHANNELS 3 Zrotation Xrotation Yrotation
                  JOINT RightHand
                  {
                    OFFSET 0 15.8037 0
                    CHANNELS 3 Zrotation Xrotation Yrotation
                    End Site
                    {
                      OFFSET 0 0 0
                    }
                  }
                }
              }
            }
          }
        }
        JOINT LeftShoulder
        {
          OFFSET 4.1327 10.5992 -0.575451
          CHANNELS 3 Zrotation Xrotation Yrotation
          JOINT LeftArm
          {
            OFFSET 0 13.9018 0
            CHANNELS 3 Zrotation Xrotation Yrotation
            JOINT LeftArmRoll
            {
              OFFSET 0 7.01789 0
              CHANNELS 3 Zrotation Xrotation Yrotation
              JOINT LeftForeArm
              {
                OFFSET 0 20.4406 0
                CHANNELS 3 Zrotation Xrotation Yrotation
                JOINT LeftForeArmRoll
                {
                  OFFSET 0 7.87515 0
                  CHANNELS 3 Zrotation Xrotation Yrotation
                  JOINT LeftHand
                  {
                    OFFSET 0 15.8037 0
                    CHANNELS 3 Zrotation Xrotation Yrotation
                    End Site
                    {
                      OFFSET 0 0 0
                    }
                  }
                }
              }
            }
          }
        }
      }
    }
  }
  JOINT RightUpLeg
  {
    OFFSET -7.06048 -1.2947 -1.0861
    CHANNELS 3 Zrotation Xrotation Yrotation
    JOINT RightUpLegRoll
    {
      OFFSET 0 18.5308 0
      CHANNELS 3 Zrotation Xrotation Yrotation
      JOINT RightLeg
      {
        OFFSET 0 -22.9476 0
        CHANNELS 3 Zrotation Xrotation Yrotation
        JOINT RightLegRoll
        {
          OFFSET 0 23.0226 0
          CHANNELS 3 Zrotation Xrotation Yrotation
          JOINT RightFoot
          {
            OFFSET 0 19.1625 0
            CHANNELS 3 Zrotation Xrotation Yrotation
            JOINT RightToeBase
            {
              OFFSET 0 16.0188 0
              CHANNELS 3 Zrotation Xrotation Yrotation
              End Site
              {
                OFFSET 0.00678979 7.75781 -0.894207
              }
            }
          }
        }
      }
    }
  }
  JOINT LeftUpLeg
  {
    OFFSET 7.06048 -1.2947 -1.0861
    CHANNELS 3 Zrotation Xrotation Yrotation
    JOINT LeftUpLegRoll
    {
      OFFSET 0 18.5309 0
      CHANNELS 3 Zrotation Xrotation Yrotation
      JOINT LeftLeg
      {
        OFFSET 0 22.9475 0
        CHANNELS 3 Zrotation Xrotation Yrotation
        JOINT LeftLegRoll
        {
          OFFSET 0 23.2355 0
          CHANNELS 3 Zrotation Xrotation Yrotation
          JOINT LeftFoot
          {
            OFFSET 0 18.9496 0
            CHANNELS 3 Zrotation Xrotation Yrotation
            JOINT LeftToeBase
            {
              OFFSET 0 16.0188 0
              CHANNELS 3 Zrotation Xrotation Yrotation
              End Site
              {
                OFFSET -0.0304289 7.75782 -0.894206
              }
            }
          }
        }
      }
    }
  }
}
MOTION
Frames: 8
Frame Time: 0.00208333
74.8889 94.5475 12.864 -8.18589 -3.86559 116.328 0.45117 -0.147907 1.50448 0.892943 3.71898 2.95149 0.85873 5.36306 2.93957 -44.2516 2.10651 -2.00807 38.3466 11.1642 -10.1699 23.6349 21.8659 29.568 162.956 40.9897 -32.6111 -7.40259e-006 -5.90354e-007 2.43086e-006 0.00840193 2.48427 -0.150341 -8.52877e-007 -6.96096e-006 -3.00673 8.0296 -4.9515 0.697773 -95.3719 -6.36288 5.46059 -75.1579 9.32266 34.2818 -9.59435e-006 1.00026e-006 -1.58243e-006 -51.015 84.3673 56.1384 -3.59266e-006 -3.77669e-006 3.00719 -8.02936 -4.95159 -0.69781 -177.641 -9.75266 -2.99056 180 7.0152e-015 178.812 176.722 11.1384 179.654 3.76049e-006 -5.42252e-006 0.143927 -18.0704 67.5687 19.203 10.2375 35.5026 -10.5245 172.144 24.2634 14.31 4.54188e-006 -4.6773e-006 -0.675578 2.2298 -11.1618 0.652216 -4.00688e-006 -8.28094e-006 -0.424 21.5 70.5396 -21.9371 -8.13652 25.2327 3.48804 
74.9317 94.5684 12.8653 -8.18831 -3.85267 116.435 0.457951 -0.140151 1.50816 0.906307 3.73469 2.95794 0.872039 5.37877 2.94581 -44.2429 2.1557 -1.97521 38.295 11.1515 -10.1497 23.6494 21.8457 29.5381 163.028 40.7665 -32.5865 -7.40259e-006 -5.90354e-007 2.43086e-006 0.102261 2.48132 -0.15916 -8.52876e-007 -6.96096e-006 -3.00673 8.0296 -4.9515 0.697773 -95.3523 -6.36893 5.46129 -75.2124 9.3042 34.257 -9.59435e-006 1.00026e-006 -1.58243e-006 -50.8968 84.3539 56.0114 -3.59266e-006 -3.77669e-006 3.00719 -8.02936 -4.95159 -0.69781 -177.624 -9.7577 -3.00217 180 7.0152e-015 178.813 176.726 11.1251 179.654 3.76049e-006 -5.42252e-006 0.143561 -18.0652 67.5625 19.1987 10.2584 35.5415 -10.5884 172.103 24.2504 14.3391 4.54188e-006 -4.6773e-006 -0.676414 2.22995 -11.1651 0.652951 -4.00688e-006 -8.28094e-006 -0.424424 21.5214 70.5544 -21.9543 -8.13652 25.2327 3.48804 
74.956 94.5656 12.8713 -8.19325 -3.83932 116.542 0.464381 -0.133033 1.51167 0.918985 3.74912 2.96408 0.884664 5.39319 2.95176 -44.2331 2.20734 -1.94149 38.2431 11.138 -10.1291 23.6628 21.8245 29.5079 163.094 40.5436 -32.5551 -7.40259e-006 -5.90354e-007 2.43086e-006 0.195934 2.48291 -0.167962 -8.52876e-007 -6.96096e-006 -3.00672 8.0296 -4.9515 0.697773 -95.3354 -6.37328 5.46169 -75.2635 9.28317 34.2323 -9.59435e-006 1.00026e-006 -1.58243e-006 -50.7805 84.3442 55.8899 -3.59266e-006 -3.77669e-006 3.00719 -8.02936 -4.95159 -0.69781 -177.608 -9.75627 -3.01316 180 7.01521e-015 178.814 176.73 11.1196 179.653 3.76049e-006 -5.42252e-006 0.143276 -18.0616 67.5584 19.196 10.2794 35.5825 -10.6502 172.059 24.2366 14.3704 4.54188e-006 -4.6773e-006 -0.677112 2.2311 -11.1628 0.653544 -4.00688e-006 -8.28094e-006 -0.424328 21.5401 70.567 -21.9695 -8.13652 25.2327 3.48804 
74.9816 94.5577 12.8727 -8.20044 -3.8256 116.647 0.470491 -0.126517 1.51503 0.931038 3.76234 2.96999 0.896667 5.4064 2.95748 -44.2219 2.2613 -1.907 38.1909 11.1237 -10.1082 23.6757 21.8026 29.4772 163.155 40.3213 -32.5177 -7.40259e-006 -5.90354e-007 2.43086e-006 0.289277 2.48849 -0.176728 -8.52876e-007 -6.96096e-006 -3.00672 8.0296 -4.9515 0.697773 -95.3208 -6.37603 5.46181 -75.3117 9.25969 34.2079 -9.59435e-006 1.00026e-006 -1.58243e-006 -50.6654 84.3378 55.7728 -3.59266e-006 -3.77669e-006 3.0072 -8.02936 -4.95159 -0.69781 -177.595 -9.74906 -3.02355 180 7.01521e-015 178.815 176.735 11.121 179.653 3.76049e-006 -5.42252e-006 0.143059 -18.0594 67.5561 19.1947 10.3006 35.6254 -10.71 172.015 24.2222 14.4037 4.54188e-006 -4.6773e-006 -0.677688 2.23314 -11.1555 0.654013 -4.00688e-006 -8.28094e-006 -0.423786 21.5564 70.5775 -21.9829 -8.13652 25.2327 3.48804 
75.0118 94.5617 12.8726 -8.20964 -3.81161 116.751 0.476312 -0.120568 1.51829 0.942529 3.77442 2.97571 0.908109 5.41848 2.96303 -44.2092 2.31746 -1.87184 38.1383 11.1085 -10.0868 23.6884 21.7799 29.4458 163.211 40.1 -32.4749 -7.40259e-006 -5.90354e-007 2.43086e-006 0.382147 2.49753 -0.185443 -8.52876e-007 -6.96096e-006 -3.00671 8.0296 -4.9515 0.697773 -95.3084 -6.37733 5.46166 -75.3568 9.23387 34.1838 -9.59435e-006 1.00026e-006 -1.58243e-006 -50.5512 84.3339 55.6591 -3.59266e-006 -3.77669e-006 3.0072 -8.02936 -4.95159 -0.69781 -177.583 -9.73674 -3.03338 180 -7.01521e-015 178.816 176.74 11.1283 179.652 3.76049e-006 -5.42252e-006 0.142902 -18.0585 67.5553 19.1946 10.3218 35.6702 -10.7681 171.969 24.2073 14.4386 4.54188e-006 -4.6773e-006 -0.678156 2.23593 -11.1439 0.654376 -4.00688e-006 -8.28094e-006 -0.422869 21.5706 70.5863 -21.9946 -8.13652 25.2327 3.48804 
75.0366 94.5606 12.8759 -8.22059 -3.79743 116.853 0.481877 -0.115149 1.52147 0.95352 3.78544 2.98132 0.91905 5.42948 2.96847 -44.1951 2.37568 -1.83607 38.0851 11.0924 -10.065 23.7016 21.7565 29.4134 163.262 39.8801 -32.4273 -7.40259e-006 -5.90354e-007 2.43086e-006 0.4744 2.50947 -0.194089 -8.52876e-007 -6.96096e-006 -3.00671 8.0296 -4.9515 0.697773 -95.2976 -6.37728 5.46126 -75.3992 9.20583 34.1602 -9.59435e-006 1.00026e-006 -1.58243e-006 -50.4376 84.332 55.548 -3.59266e-006 -3.77669e-006 3.0072 -8.02936 -4.95159 -0.69781 -177.574 -9.72 -3.04269 180 7.01521e-015 178.816 176.746 11.1406 179.652 3.76049e-006 -5.42252e-006 0.142795 -18.0586 67.5557 19.1955 10.3431 35.7166 -10.8244 171.922 24.1921 14.4749 4.54188e-006 -4.6773e-006 -0.678533 2.23936 -11.1289 0.654649 -4.00688e-006 -8.28094e-006 -0.421651 21.583 70.5936 -22.0049 -8.13652 25.2327 3.48804 
75.0562 94.5583 12.8794 -8.23308 -3.78317 116.954 0.487215 -0.110227 1.52461 0.964071 3.79545 2.98688 0.929551 5.43949 2.97386 -44.1793 2.43585 -1.7998 38.0313 11.0751 -10.0427 23.7157 21.7326 29.3798 163.31 39.6619 -32.3756 -7.40259e-006 -5.90354e-007 2.43086e-006 0.565892 2.52377 -0.202648 -8.52876e-007 -6.96096e-006 -3.0067 8.0296 -4.9515 0.697773 -95.2883 -6.37601 5.46062 -75.439 9.17568 34.1369 -9.59435e-006 1.00026e-006 -1.58243e-006 -50.3245 84.3315 55.4386 -3.59266e-006 -3.77669e-006 3.00721 -8.02936 -4.95159 -0.69781 -177.566 -9.69952 -3.05149 180 7.01521e-015 178.817 176.752 11.157 179.652 3.76049e-006 -5.42252e-006 0.142728 -18.0594 67.5572 19.1971 10.3645 35.7646 -10.8791 171.875 24.1769 14.5121 4.54188e-006 -4.6773e-006 -0.678832 2.24331 -11.111 0.654852 -4.00688e-006 -8.28094e-006 -0.420203 21.5939 70.5997 -22.0141 -8.13652 25.2327 3.48804 
75.0816 94.5578 12.8817 -8.24683 -3.7689 117.053 0.492359 -0.105765 1.52774 0.974244 3.80454 2.99244 0.939674 5.44858 2.97927 -44.1618 2.49783 -1.76309 37.9768 11.0566 -10.02 23.7313 21.7081 29.3449 163.353 39.4459 -32.3205 -7.40259e-006 -5.90354e-007 2.43086e-006 0.656478 2.53989 -0.211103 -8.52876e-007 -6.96096e-006 -3.0067 8.0296 -4.9515 0.697773 -95.2801 -6.37364 5.45975 -75.4763 9.14353 34.1141 -9.59435e-006 1.00026e-006 -1.58243e-006 -50.2117 84.3319 55.3303 -3.59266e-006 -3.77669e-006 3.00721 -8.02936 -4.95159 -0.69781 -177.559 -9.67597 -3.05982 180 7.01522e-015 178.818 176.758 11.1765 179.651 3.76049e-006 -5.42252e-006 0.14269 -18.0608 67.5594 19.1993 10.386 35.8141 -10.9324 171.827 24.1618 14.55 4.54188e-006 -4.6773e-006 -0.67907 2.24766 -11.0911 0.655001 -4.00687e-006 -8.28094e-006 -0.418599 21.6036 70.605 -22.0224 -8.13652 25.2327 3.48804 
